<svg xmlns="http://www.w3.org/2000/svg" width="340" height="200" viewBox="0 0 340 200"><style>* {
          font-family: Ubuntu, 'Lucida Grande', Arial, Helvetica, sans-serif
        }</style><rect x="1.5" y="1.5" rx="20" ry="20" height="98%" width="98%" stroke="#e4e2e2" stroke-width="1.2" fill="#ffffff" stroke-opacity="1"></rect><text x="30" y="40" style="font-size: 22px; fill: #0366d6;">Top Languages by Commit</text><g transform="translate(0,40)"><g transform="translate(40,0)"><rect y="18" width="14" height="14" fill="#b07219" stroke="#ffffff" style="stroke-width: 1px;"></rect><rect y="43.2" width="14" height="14" fill="#f1e05a" stroke="#ffffff" style="stroke-width: 1px;"></rect><rect y="68.4" width="14" height="14" fill="#3D6117" stroke="#ffffff" style="stroke-width: 1px;"></rect><rect y="93.60000000000002" width="14" height="14" fill="#e34c26" stroke="#ffffff" style="stroke-width: 1px;"></rect><rect y="118.80000000000001" width="14" height="14" fill="#3572A5" stroke="#ffffff" style="stroke-width: 1px;"></rect><text x="16.8" y="30" style="fill: #586069; font-size: 14px;">Java</text><text x="16.8" y="55.2" style="fill: #586069; font-size: 14px;">JavaScript</text><text x="16.8" y="80.4" style="fill: #586069; font-size: 14px;">TeX</text><text x="16.8" y="105.60000000000002" style="fill: #586069; font-size: 14px;">HTML</text><text x="16.8" y="130.8" style="fill: #586069; font-size: 14px;">Python</text></g><g transform="translate( 230, 80 )"><g class="arc"><path d="M3.67394039744206e-15,-60A60,60,0,0,1,40.66940992828346,44.11347975489169L23.723822458165348,25.732863190353488A35,35,0,0,0,2.1431318985078682e-15,-35Z" style="fill: #b07219; stroke-width: 2px;" stroke="#ffffff"></path></g><g class="arc"><path d="M40.66940992828346,44.11347975489169A60,60,0,0,1,-52.700944574356555,28.681186184859893L-30.742217668374657,16.73069194116827A35,35,0,0,0,23.723822458165348,25.732863190353488Z" style="fill: #f1e05a; stroke-width: 2px;" stroke="#ffffff"></path></g><g class="arc"><path d="M-52.700944574356555,28.681186184859893A60,60,0,0,1,-52.94000387202148,-28.237492630018526L-30.881668925345863,-16.47187070084414A35,35,0,0,0,-30.742217668374657,16.73069194116827Z" style="fill: #3D6117; stroke-width: 2px;" stroke="#ffffff"></path></g><g class="arc"><path d="M-52.94000387202148,-28.237492630018526A60,60,0,0,1,-24.31207902203361,-54.853649045677834L-14.182046096186273,-31.99796194331207A35,35,0,0,0,-30.881668925345863,-16.47187070084414Z" style="fill: #e34c26; stroke-width: 2px;" stroke="#ffffff"></path></g><g class="arc"><path d="M-24.31207902203361,-54.853649045677834A60,60,0,0,1,-1.1021821192326178e-14,-60L-6.429395695523604e-15,-35A35,35,0,0,0,-14.182046096186273,-31.99796194331207Z" style="fill: #3572A5; stroke-width: 2px;" stroke="#ffffff"></path></g></g></g></svg>