<svg xmlns="http://www.w3.org/2000/svg" width="340" height="200" viewBox="0 0 340 200"><style>* {
          font-family: Ubuntu, 'Lucida Grande', Arial, Helvetica, sans-serif
        }</style><rect x="1.5" y="1.5" rx="20" ry="20" height="98%" width="98%" stroke="#e4e2e2" stroke-width="1.2" fill="#ffffff" stroke-opacity="1"></rect><text x="30" y="40" style="font-size: 22px; fill: #0366d6;">Top Languages by Commit</text><g transform="translate(0,40)"><g transform="translate(40,0)"><rect y="18" width="14" height="14" fill="#b07219" stroke="#ffffff" style="stroke-width: 1px;"></rect><rect y="43.2" width="14" height="14" fill="#f1e05a" stroke="#ffffff" style="stroke-width: 1px;"></rect><rect y="68.4" width="14" height="14" fill="#3D6117" stroke="#ffffff" style="stroke-width: 1px;"></rect><rect y="93.60000000000002" width="14" height="14" fill="#e34c26" stroke="#ffffff" style="stroke-width: 1px;"></rect><rect y="118.80000000000001" width="14" height="14" fill="#3572A5" stroke="#ffffff" style="stroke-width: 1px;"></rect><text x="16.8" y="30" style="fill: #586069; font-size: 14px;">Java</text><text x="16.8" y="55.2" style="fill: #586069; font-size: 14px;">JavaScript</text><text x="16.8" y="80.4" style="fill: #586069; font-size: 14px;">TeX</text><text x="16.8" y="105.60000000000002" style="fill: #586069; font-size: 14px;">HTML</text><text x="16.8" y="130.8" style="fill: #586069; font-size: 14px;">Python</text></g><g transform="translate( 230, 80 )"><g class="arc"><path d="M3.67394039744206e-15,-60A60,60,0,0,1,39.75808412641945,44.936563582416426L23.192215740411346,26.212995423076247A35,35,0,0,0,2.1431318985078682e-15,-35Z" style="fill: #b07219; stroke-width: 2px;" stroke="#ffffff"></path></g><g class="arc"><path d="M39.75808412641945,44.936563582416426A60,60,0,0,1,-53.54665823989281,27.06945495092428L-31.235550639937472,15.790515388039163A35,35,0,0,0,23.192215740411346,26.212995423076247Z" style="fill: #f1e05a; stroke-width: 2px;" stroke="#ffffff"></path></g><g class="arc"><path d="M-53.54665823989281,27.06945495092428A60,60,0,0,1,-53.040795993936726,-28.047708646689586L-30.940464329796423,-16.36116337723559A35,35,0,0,0,-31.235550639937472,15.790515388039163Z" style="fill: #3D6117; stroke-width: 2px;" stroke="#ffffff"></path></g><g class="arc"><path d="M-53.040795993936726,-28.047708646689586A60,60,0,0,1,-24.50734584596186,-54.76668695097793L-14.295951743477753,-31.947234054737123A35,35,0,0,0,-30.940464329796423,-16.36116337723559Z" style="fill: #e34c26; stroke-width: 2px;" stroke="#ffffff"></path></g><g class="arc"><path d="M-24.50734584596186,-54.76668695097793A60,60,0,0,1,4.226888398968133e-14,-60L2.4656848993980778e-14,-35A35,35,0,0,0,-14.295951743477753,-31.947234054737123Z" style="fill: #3572A5; stroke-width: 2px;" stroke="#ffffff"></path></g></g></g></svg>